<mxfile host="app.diagrams.net" modified="2023-10-08T20:59:01.507Z" agent="Mozilla/5.0 (Windows NT 10.0; Win64; x64) AppleWebKit/537.36 (KHTML, like Gecko) Chrome/117.0.0.0 Safari/537.36" version="22.0.4" etag="BP-0q0R3aZAjy48kTqpZ" type="github">
  <diagram name="Page-1" id="Tl8371pRQ4qdyGzqlH_H">
    <mxGraphModel>
      <root>
        <mxCell id="0" />
        <mxCell id="1" parent="0" />
      </root>
    </mxGraphModel>
  </diagram>
</mxfile>
